<?xml version="1.0" encoding="UTF-8" standalone="no"?>
<!DOCTYPE svg PUBLIC "-//W3C//DTD SVG 1.1//EN" "http://www.w3.org/Graphics/SVG/1.1/DTD/svg11.dtd">
<svg width="100%" height="100%" viewBox="0 0 37 36" version="1.1" xmlns="http://www.w3.org/2000/svg" xmlns:xlink="http://www.w3.org/1999/xlink" xml:space="preserve" xmlns:serif="http://www.serif.com/" style="fill-rule:evenodd;clip-rule:evenodd;stroke-linejoin:round;stroke-miterlimit:2;">
    <g id="Artboard1" transform="matrix(1,0,0,0.961227,0,0)">
        <rect x="0" y="0" width="36.2" height="36.7" style="fill:none;"/>
        <g transform="matrix(1,0,0,1.04034,0,-1.48036)">
            <path d="M20.8,2C20,2 19.2,2.4 18.7,3C15.1,7.6 12.9,13 12,18.4C11.1,23.1 11.5,29.1 13.1,34.7C13.4,35.8 14,36.7 18.5,36.7C30.7,36.7 36.2,31.9 36.2,19.4C36.2,7.1 31,2 20.8,2M20.5,35.1C19.8,35.5 18.8,35.2 18.5,34.5C16,29.8 15.2,24.5 16.2,19.2C17.2,13.9 19.8,9.2 23.8,5.6C24.4,5.1 25.4,5.1 25.9,5.7C26.5,6.3 26.4,7.2 25.8,7.8C22.4,10.8 20,14.9 19.2,19.7C18.3,24.4 19.2,29.1 21.2,33.1L21.2,33.2C21.5,33.8 21.2,34.7 20.5,35.1M29.7,12.9C27.2,14.9 25.4,17.5 24.8,20.6C24.2,23.7 24.8,26.8 26.4,29.4L26.4,29.5C26.7,29.9 26.5,30.5 26,30.7C25.5,30.9 24.9,30.8 24.6,30.3C22.8,27.4 22.1,23.9 22.8,20.4C23.5,16.9 25.5,13.9 28.3,11.6L28.4,11.5C28.8,11.2 29.5,11.2 29.8,11.6C30.2,12 30.1,12.6 29.7,12.9M6.2,32.5C6.3,33.1 5.6,33.5 5.1,33.1C2.4,30.7 0.8,27.6 0.8,19.3C0.8,8.6 5,4 10.7,2.5C11.3,2.3 11.7,3 11.4,3.4C8.8,7.7 7,12.4 6.1,17.4C5.2,22.4 5.3,27.6 6.2,32.5Z" style="fill:rgb(36,107,232);fill-rule:nonzero;"/>
        </g>
    </g>
</svg>
