<?xml version="1.0" encoding="UTF-8" standalone="no"?>
<!DOCTYPE svg PUBLIC "-//W3C//DTD SVG 1.1//EN" "http://www.w3.org/Graphics/SVG/1.1/DTD/svg11.dtd">
<svg width="100%" height="100%" viewBox="0 0 184 37" version="1.1" xmlns="http://www.w3.org/2000/svg" xmlns:xlink="http://www.w3.org/1999/xlink" xml:space="preserve" xmlns:serif="http://www.serif.com/" style="fill-rule:evenodd;clip-rule:evenodd;stroke-linejoin:round;stroke-miterlimit:2;">
    <g>
        <path d="M36.5,33.3L50.9,4.8C51.2,4.2 51.4,3.9 51.7,3.9L51.8,3.9C52.1,3.9 52.2,4.2 52.6,4.8L67.1,33.4C67.4,33.9 67.1,34.3 66.5,34.3L62.3,34.3C61.7,34.3 61.5,34.1 61.1,33.4L58.4,27.8L45.2,27.8L42.5,33.4C42.1,34.1 41.9,34.3 41.3,34.3L37.1,34.3C36.5,34.3 36.3,33.8 36.5,33.3M56.6,23.1L51.9,13.1L51.8,13.1L47.1,23.1L56.6,23.1Z" style="fill-rule:nonzero;"/>
        <path d="M60.3,3.8C61,3.8 61.3,4 61.5,4.7L70,22.6L77.4,4.7C77.4,4.6 77.5,4.4 77.5,4.4C77.7,4 77.8,3.9 78.1,3.9L78.8,3.9C79.1,3.9 79.2,4.1 79.4,4.4C79.5,4.5 79.5,4.6 79.6,4.7L86.9,22.6L95.5,4.7C95.7,4 96,3.8 96.6,3.8L101,3.8C101.7,3.8 101.8,4 101.5,4.7L87.3,33.3C87,33.9 86.9,34.2 86.6,34.2L86.2,34.2C85.9,34.2 85.8,33.9 85.5,33.3L78.4,15.8L71.3,33.3C71,33.9 70.9,34.2 70.6,34.2L70.2,34.2C69.9,34.2 69.8,33.9 69.5,33.3L55.5,4.7C55.2,4 55.2,3.8 55.9,3.8L60.3,3.8Z" style="fill-rule:nonzero;"/>
        <path d="M107.4,11.7C114.4,11.7 118,17.3 118,23.7C118,24.5 117.9,24.7 117.1,24.7L101.5,24.7C102.1,28.4 105,30 107.7,30C109.1,30 111.1,29.7 113.4,28.5C113.8,28.3 114,28.2 114.2,28.2C114.4,28.2 114.5,28.3 114.8,28.6L116.1,30.2C116.5,30.8 116.6,31 116.2,31.4C114.2,33.4 110.7,34.4 107.6,34.4C101.2,34.4 96.2,29.3 96.2,23.1C96.2,16.9 101.2,11.7 107.4,11.7M112.7,21.1C112.4,18.5 110.7,15.9 107.3,15.9C104.4,15.9 102.2,18.2 101.6,21.1L112.7,21.1Z" style="fill-rule:nonzero;"/>
        <path d="M125.4,15.4C126,14.3 128.4,11.7 132.4,11.7C138.1,11.7 142.2,16.8 142.2,23C142.2,29 138.2,34.3 132.4,34.3C128.4,34.3 126.1,32.2 124.5,30.3L123.9,32.9C123.5,33.5 123.3,33.8 122.8,33.8L121.2,33.8C120.5,33.8 120.3,33.6 120.3,32.9L120.4,1.4C120.4,0.7 120.6,0.5 121.3,0.5L124.6,0.5C125.3,0.5 125.5,0.7 125.5,1.4L125.4,15.4ZM137.1,23C137.1,19.3 134.6,16.3 131.3,16.3C127.9,16.3 125.4,19.4 125.4,23C125.4,26.7 127.9,29.8 131.3,29.8C134.6,29.7 137.1,26.8 137.1,23" style="fill-rule:nonzero;"/>
        <path d="M155.5,11.7C162.5,11.7 166.1,17.3 166.1,23.7C166.1,24.5 166,24.7 165.2,24.7L149.6,24.7C150.2,28.4 153.1,30 155.8,30C157.2,30 159.2,29.7 161.5,28.5C161.9,28.3 162.1,28.2 162.3,28.2C162.5,28.2 162.6,28.3 162.9,28.6L164.2,30.2C164.6,30.8 164.7,31 164.3,31.4C162.3,33.4 158.8,34.4 155.7,34.4C149.3,34.4 144.3,29.3 144.3,23.1C144.3,16.9 149.3,11.7 155.5,11.7M160.8,21.1C160.5,18.5 158.8,15.9 155.4,15.9C152.5,15.9 150.3,18.2 149.7,21.1L160.8,21.1Z" style="fill-rule:nonzero;"/>
        <path d="M173.4,23.7L173.4,33.4C173.4,34.1 173.2,34.3 172.5,34.3L169.2,34.3C168.5,34.3 168.3,34.1 168.3,33.4L168.3,13.5C168.3,12.8 168.5,12.6 169.2,12.6L170.8,12.6C171.4,12.6 171.6,12.9 171.9,13.5L172.9,16.6C174.1,14.4 177.2,12 182.3,12C183.1,12 183.2,12.3 183.1,12.8L182.6,16.1C182.5,16.8 182.3,17 181.6,17C176.8,17.2 173.4,20.3 173.4,23.7" style="fill-rule:nonzero;"/>
    </g>
    <g>
        <path d="M20.8,2C20,2 19.2,2.4 18.7,3C15.1,7.6 12.9,13 12,18.4C11.1,23.1 11.5,29.1 13.1,34.7C13.4,35.8 14,36.7 18.5,36.7C30.7,36.7 36.2,31.9 36.2,19.4C36.2,7.1 31,2 20.8,2M20.5,35.1C19.8,35.5 18.8,35.2 18.5,34.5C16,29.8 15.2,24.5 16.2,19.2C17.2,13.9 19.8,9.2 23.8,5.6C24.4,5.1 25.4,5.1 25.9,5.7C26.5,6.3 26.4,7.2 25.8,7.8C22.4,10.8 20,14.9 19.2,19.7C18.3,24.4 19.2,29.1 21.2,33.1L21.2,33.2C21.5,33.8 21.2,34.7 20.5,35.1M29.7,12.9C27.2,14.9 25.4,17.5 24.8,20.6C24.2,23.7 24.8,26.8 26.4,29.4L26.4,29.5C26.7,29.9 26.5,30.5 26,30.7C25.5,30.9 24.9,30.8 24.6,30.3C22.8,27.4 22.1,23.9 22.8,20.4C23.5,16.9 25.5,13.9 28.3,11.6L28.4,11.5C28.8,11.2 29.5,11.2 29.8,11.6C30.2,12 30.1,12.6 29.7,12.9M6.2,32.5C6.3,33.1 5.6,33.5 5.1,33.1C2.4,30.7 0.8,27.6 0.8,19.3C0.8,8.6 5,4 10.7,2.5C11.3,2.3 11.7,3 11.4,3.4C8.8,7.7 7,12.4 6.1,17.4C5.2,22.4 5.3,27.6 6.2,32.5Z" style="fill:rgb(36,107,232);fill-rule:nonzero;"/>
    </g>
</svg>
